<svg width="188" height="64" viewBox="0 0 188 64" fill="none" xmlns="http://www.w3.org/2000/svg">
<path d="M15.376 0.975996C17.248 0.975996 19.264 1.168 21.424 1.552C23.632 1.888 24.928 2.08 25.312 2.128L25.168 7.528C20.944 6.76 17.68 6.376 15.376 6.376C12.112 6.376 9.76 7.048 8.32 8.392C6.88 9.736 6.16 11.968 6.16 15.088V35.68C6.16 38.8 6.856 41.032 8.248 42.376C9.688 43.672 12.064 44.32 15.376 44.32C17.68 44.32 20.944 43.936 25.168 43.168L25.312 48.712C24.928 48.76 23.632 48.952 21.424 49.288C19.264 49.672 17.248 49.864 15.376 49.864C9.856 49.864 5.92 48.688 3.568 46.336C1.216 43.984 0.04 40.312 0.04 35.32V15.52C0.04 10.528 1.216 6.856 3.568 4.504C5.92 2.152 9.856 0.975996 15.376 0.975996ZM58.4106 49H52.6506V43.96C51.3546 45.88 49.9146 47.344 48.3306 48.352C46.7466 49.36 45.0666 49.864 43.2906 49.864C40.3626 49.864 38.0586 48.856 36.3786 46.84C34.7466 44.776 33.9306 41.776 33.9306 37.84V13.864H40.0506V36.76C40.0506 39.304 40.4346 41.176 41.2026 42.376C42.0186 43.576 43.1226 44.176 44.5146 44.176C45.8106 44.176 47.1546 43.672 48.5466 42.664C49.9866 41.608 51.2346 40.168 52.2906 38.344V13.864H58.4106V49ZM93.8684 13.864L82.9964 49H75.0044L64.2044 13.864H70.6844L79.0364 44.536L87.3884 13.864H93.8684ZM110.912 13C114.944 13 118.016 14.104 120.128 16.312C122.24 18.52 123.296 21.712 123.296 25.888V33.304H104.792V37.552C104.792 40 105.368 41.776 106.52 42.88C107.72 43.936 109.592 44.464 112.136 44.464C114.632 44.464 117.752 44.08 121.496 43.312L121.64 48.64C117.176 49.456 113.984 49.864 112.064 49.864C107.312 49.864 103.88 48.832 101.768 46.768C99.7036 44.704 98.6716 41.512 98.6716 37.192V25.888C98.6716 21.712 99.6796 18.52 101.696 16.312C103.76 14.104 106.832 13 110.912 13ZM110.912 18.112C109.04 18.112 107.552 18.712 106.448 19.912C105.344 21.064 104.792 22.744 104.792 24.952V28.408H117.176V25.168C117.176 22.864 116.6 21.112 115.448 19.912C114.344 18.712 112.832 18.112 110.912 18.112ZM143.115 13C145.227 13 147.147 13.312 148.875 13.936L160.107 13.792V19.192L154.203 19.048C155.019 20.776 155.427 22.576 155.427 24.448V26.032C155.427 29.536 154.347 32.368 152.187 34.528C150.027 36.64 147.003 37.696 143.115 37.696C140.619 37.696 138.579 37.456 136.995 36.976C135.939 37.84 135.411 38.824 135.411 39.928V40.36C135.411 41.128 135.651 41.704 136.131 42.088C136.611 42.424 137.547 42.64 138.939 42.736L149.667 43.528C151.875 43.72 153.651 44.56 154.995 46.048C156.387 47.488 157.083 49.312 157.083 51.52V54.184C157.083 56.248 156.675 57.928 155.859 59.224C155.043 60.52 153.531 61.504 151.323 62.176C149.163 62.848 146.043 63.184 141.963 63.184C140.427 63.184 138.603 63.016 136.491 62.68C134.427 62.344 132.459 61.912 130.587 61.384L130.803 55.696C135.267 57.184 139.059 57.928 142.179 57.928C144.771 57.928 146.691 57.76 147.939 57.424C149.235 57.136 150.075 56.68 150.459 56.056C150.891 55.432 151.107 54.496 151.107 53.248V52.672C151.107 51.568 150.795 50.704 150.171 50.08C149.595 49.456 148.755 49.12 147.651 49.072L136.851 48.352C134.547 48.208 132.795 47.56 131.595 46.408C130.395 45.256 129.795 43.696 129.795 41.728V40.288C129.795 39.232 130.059 38.2 130.587 37.192C131.163 36.184 131.979 35.296 133.035 34.528C132.219 33.616 131.619 32.464 131.235 31.072C130.899 29.632 130.731 27.88 130.731 25.816V24.232C130.731 20.824 131.787 18.112 133.899 16.096C136.011 14.032 139.083 13 143.115 13ZM143.115 18.112C141.099 18.112 139.539 18.64 138.435 19.696C137.379 20.704 136.851 22.168 136.851 24.088V26.464C136.851 28.24 136.995 29.56 137.283 30.424C137.619 31.24 138.195 31.816 139.011 32.152C139.827 32.44 141.051 32.584 142.683 32.584C144.891 32.584 146.547 32.056 147.651 31C148.755 29.944 149.307 28.432 149.307 26.464V24.304C149.307 22.288 149.019 20.536 148.443 19.048C147.867 18.808 147.075 18.592 146.067 18.4C145.107 18.208 144.123 18.112 143.115 18.112ZM175.51 13C179.638 13 182.638 13.936 184.51 15.808C186.43 17.632 187.39 20.56 187.39 24.592V49H181.558V43.384C178.774 47.704 175.63 49.864 172.126 49.864C169.342 49.864 167.11 48.904 165.43 46.984C163.798 45.064 162.982 42.448 162.982 39.136V37.12C162.982 34.24 163.966 31.864 165.934 29.992C167.902 28.072 170.542 27.112 173.854 27.112C175.678 27.112 178.15 27.424 181.27 28.048V24.088C181.27 22.024 180.79 20.536 179.83 19.624C178.918 18.712 177.478 18.256 175.51 18.256C173.206 18.256 169.966 18.616 165.79 19.336V14.08C170.302 13.36 173.542 13 175.51 13ZM175.366 31.864C173.35 31.864 171.814 32.392 170.758 33.448C169.702 34.504 169.174 35.992 169.174 37.912V38.704C169.174 40.48 169.582 41.872 170.398 42.88C171.214 43.888 172.246 44.392 173.494 44.392C174.79 44.392 176.11 43.84 177.454 42.736C178.846 41.584 180.118 39.976 181.27 37.912V32.368C179.446 32.032 177.478 31.864 175.366 31.864Z" fill="url(#paint0_linear)"/>
<defs>
<linearGradient id="paint0_linear" x1="245" y1="61" x2="8.49999" y2="61" gradientUnits="userSpaceOnUse">
<stop offset="0.237478" stop-color="#D4AC9C"/>
<stop offset="1" stop-color="#7D5730"/>
</linearGradient>
</defs>
</svg>
