<svg width="240" height="240" viewBox="0 0 240 240" fill="none" xmlns="http://www.w3.org/2000/svg">
<mask id="mask0" mask-type="alpha" maskUnits="userSpaceOnUse" x="0" y="0" width="240" height="240">
<path d="M240 120C240 186.274 186.274 240 120 240C53.7258 240 0 186.274 0 120C0 53.7258 53.7258 0 120 0C186.274 0 240 53.7258 240 120Z" fill="#D4AC9C"/>
</mask>
<g mask="url(#mask0)">
<path d="M240 120C240 186.274 186.274 240 120 240C53.7258 240 0 186.274 0 120C0 53.7258 53.7258 0 120 0C186.274 0 240 53.7258 240 120Z" fill="#D4AC9C"/>
<rect x="104" y="225" width="33" height="30" fill="#7D5730"/>
<path d="M204.853 35.1472C188.07 18.3649 166.689 6.93598 143.411 2.30576C120.133 -2.32447 96.0051 0.0519371 74.078 9.13446C52.1508 18.217 33.4094 33.5977 20.2236 53.3316C7.03787 73.0655 -3.5837e-06 96.2663 0 120C3.5837e-06 143.734 7.03788 166.935 20.2237 186.668C33.4094 206.402 52.1509 221.783 74.078 230.866C96.0051 239.948 120.133 242.324 143.411 237.694C166.689 233.064 188.071 221.635 204.853 204.853L173.238 173.238C162.708 183.767 149.293 190.938 134.688 193.843C120.084 196.748 104.945 195.257 91.1879 189.559C77.4305 183.86 65.6718 174.21 57.3989 161.829C49.1259 149.447 44.7103 134.891 44.7103 120C44.7102 105.109 49.1259 90.5526 57.3989 78.1713C65.6718 65.7899 77.4305 56.1398 91.1879 50.4413C104.945 44.7428 120.084 43.2518 134.688 46.1569C149.293 49.062 162.708 56.2326 173.238 66.7621L204.853 35.1472Z" fill="#2A1E0C"/>
<path d="M134 228.5C134 207.029 130.547 185.768 123.838 165.931C117.129 146.095 107.295 128.07 94.8988 112.888C82.5021 97.7057 67.7852 85.6623 51.5882 77.4457C35.3913 69.2291 18.0315 65 0.5 65V101.788C14.0869 101.788 27.5407 105.065 40.0934 111.433C52.646 117.801 64.0516 127.134 73.659 138.901C83.2664 150.667 90.8874 164.636 96.0869 180.009C101.286 195.383 103.962 211.86 103.962 228.5H134Z" fill="#7D5730"/>
<path d="M107 228.5C107 207.029 110.453 185.768 117.162 165.931C123.871 146.095 133.705 128.07 146.101 112.888C158.498 97.7057 173.215 85.6623 189.412 77.4457C205.609 69.2291 222.969 65 240.5 65V101.756C226.91 101.756 213.453 105.034 200.897 111.404C188.341 117.773 176.933 127.109 167.323 138.878C157.713 150.648 150.09 164.62 144.889 179.997C139.689 195.374 137.012 211.856 137.012 228.5H107Z" fill="#7D5730"/>
</g>
</svg>
